<?xml version="1.0" encoding="UTF-8"?>
<svg xmlns:dc="http://purl.org/dc/elements/1.1/"
  xmlns="http://www.w3.org/2000/svg"
  width="1056"
  height="816"
  viewBox="0 0 1056 816">
  <g transform="matrix(1.3333333,0,0,-1.3333333,0,816)">
    <path d="M 226.814,472.34 C 415.209,453.152 603.604,433.972 792,414.79 V 527.488 C 603.604,509.106 415.209,490.728 226.814,472.34" style="fill:#ed1c24;fill-opacity:0.2;" />
    <path d="M 380.596,612.168 C 327.453,570.113 274.309,528.059 221.166,486.001 303.753,528.057 386.34,570.112 468.929,612.168 Z" style="fill:#ed1c24;fill-opacity:0.2;" />
    <path d="m 249.457,612.168 c -13.467,-39.245 -26.934,-78.489 -40.405,-117.732 22.917,39.243 45.832,78.488 68.747,117.732 z" style="fill:#ed1c24;fill-opacity:0.2;" />
    <path d="m 194.309,494.962 c -1.625,39.069 -3.245,78.137 -4.864,117.206 H 165.722 C 175.25,573.1 184.78,534.031 194.309,494.962" style="fill:#ed1c24;fill-opacity:0.2;" />
    <path d="M 181.628,487.414 C 152.463,528.997 123.303,570.583 94.14,612.168 H 50.644 c 43.661,-41.585 87.323,-83.169 130.984,-124.754" style="fill:#ed1c24;fill-opacity:0.2;" />
    <path d="M 2.006,507.295 C 59.678,496.259 117.352,485.23 175.023,474.192 117.349,497.739 59.68,521.298 2.006,544.848 Z" style="fill:#ed1c24;fill-opacity:0.2;" />
    <path d="m 2.006,389.042 c 58.201,23.479 116.398,46.969 174.599,70.446 C 118.405,448.61 60.206,437.723 2.006,426.843 Z" style="fill:#ed1c24;fill-opacity:0.2;" />
    <path d="M 2.006,274.33 V 188.129 C 63.293,274.742 124.576,361.358 185.861,447.972 124.581,390.086 63.292,332.209 2.006,274.33" style="fill:#ed1c24;fill-opacity:0.2;" />
    <path d="M 199.857,443.304 C 163.151,295.498 126.441,147.691 89.732,-0.115 h 89.863 c 6.753,147.806 13.502,295.613 20.262,443.419" style="fill:#ed1c24;fill-opacity:0.2;" />
    <path d="M 214.147,446.966 C 264.588,297.938 315.041,148.912 365.49,-0.115 H 472.699 C 386.513,148.91 300.329,297.938 214.147,446.966" style="fill:#ed1c24;fill-opacity:0.2;" />
    <path d="M 224.196,457.789 C 413.46,306.706 602.73,155.631 792,4.553 v 161.08 C 602.732,263.02 413.464,360.405 224.196,457.789" style="fill:#ed1c24;fill-opacity:0.2;" />
  </g>
</svg>